<svg width="100%" height="100%" viewBox="0 0 700 700" xmlns="http://www.w3.org/2000/svg" xmlns:xlink="http://www.w3.org/1999/xlink">

  <desc></desc>

  <style type="text/css">
    <![CDATA[
    .c0 {stroke:#ff0000;}
    .c1 {stroke:#ff7f00;}
    .c2 {stroke:#ffff00;}
    .c3 {stroke:#00ff00;}
    .c4 {stroke:#0000ff;}
    .c5 {stroke:#4b0082;}
    .c6 {stroke:#9400d3;}

    .black {stroke:#000;}
    .hl {stroke:#000;stroke-width:8px;}
  ]]>
  </style>

  <defs>
    <symbol id="w1" viewBox="0 0 1000 1000">
      <path id="wave" d="M0,500q250,-1000,500,0t500,0t500,0" style="fill:none;" />
    </symbol>
  </defs>
  <g>
    <g id="waves" style="stroke:#000;stroke-width:4px;" transform="translate(50,50)">
      <use width="600" height="600" xlink:href="#w1" class="c0" />
      <use width="600" height="600" xlink:href="#w1" transform="rotate(3.6,300,300)" class="c1" />
      <use width="600" height="600" xlink:href="#w1" transform="rotate(7.2,300,300)" class="c2" />
      <use width="600" height="600" xlink:href="#w1" transform="rotate(10.8,300,300)" class="c3" />
      <use width="600" height="600" xlink:href="#w1" transform="rotate(14.4,300,300)" class="c4" />
      <use width="600" height="600" xlink:href="#w1" transform="rotate(18,300,300)" class="c5" />
      <use width="600" height="600" xlink:href="#w1" transform="rotate(21.6,300,300)" class="c6" />
      <use width="600" height="600" xlink:href="#w1" transform="rotate(25.2,300,300)" class="c0" />
      <use width="600" height="600" xlink:href="#w1" transform="rotate(28.8,300,300)" class="c1" />
      <use width="600" height="600" xlink:href="#w1" transform="rotate(32.4,300,300)" class="c2" />
      <use width="600" height="600" xlink:href="#w1" transform="rotate(36,300,300)" class="c3" />
      <use width="600" height="600" xlink:href="#w1" transform="rotate(39.6,300,300)" class="c4" />
      <use width="600" height="600" xlink:href="#w1" transform="rotate(43.2,300,300)" class="c5" />
      <use width="600" height="600" xlink:href="#w1" transform="rotate(46.8,300,300)" class="c6" />
      <use width="600" height="600" xlink:href="#w1" transform="rotate(50.4,300,300)" class="c0" />
      <use width="600" height="600" xlink:href="#w1" transform="rotate(54,300,300)" class="c1" />
      <use width="600" height="600" xlink:href="#w1" transform="rotate(57.6,300,300)" class="c2" />
      <use width="600" height="600" xlink:href="#w1" transform="rotate(61.2,300,300)" class="c3" />
      <use width="600" height="600" xlink:href="#w1" transform="rotate(64.8,300,300)" class="c4" />
      <use width="600" height="600" xlink:href="#w1" transform="rotate(68.4,300,300)" class="c5" />
      <use width="600" height="600" xlink:href="#w1" transform="rotate(72,300,300)" class="c6" />
      <use width="600" height="600" xlink:href="#w1" transform="rotate(75.6,300,300)" class="c0" />
      <use width="600" height="600" xlink:href="#w1" transform="rotate(79.2,300,300)" class="c1" />
      <use width="600" height="600" xlink:href="#w1" transform="rotate(82.8,300,300)" class="c2" />
      <use width="600" height="600" xlink:href="#w1" transform="rotate(86.4,300,300)" class="c3" />
      <use width="600" height="600" xlink:href="#w1" transform="rotate(90,300,300)" class="c4" />
      <use width="600" height="600" xlink:href="#w1" transform="rotate(93.6,300,300)" class="c5" />
      <use width="600" height="600" xlink:href="#w1" transform="rotate(97.2,300,300)" class="c6" />
      <use width="600" height="600" xlink:href="#w1" transform="rotate(100.8,300,300)" class="c0" />
      <use width="600" height="600" xlink:href="#w1" transform="rotate(104.4,300,300)" class="c1" />
      <use width="600" height="600" xlink:href="#w1" transform="rotate(108,300,300)" class="c2" />
      <use width="600" height="600" xlink:href="#w1" transform="rotate(111.6,300,300)" class="c3" />
      <use width="600" height="600" xlink:href="#w1" transform="rotate(115.2,300,300)" class="c4" />
      <use width="600" height="600" xlink:href="#w1" transform="rotate(118.8,300,300)" class="c5" />
      <use width="600" height="600" xlink:href="#w1" transform="rotate(122.4,300,300)" class="c6" />
      <use width="600" height="600" xlink:href="#w1" transform="rotate(126,300,300)" class="c0" />
      <use width="600" height="600" xlink:href="#w1" transform="rotate(129.6,300,300)" class="c1" />
      <use width="600" height="600" xlink:href="#w1" transform="rotate(133.2,300,300)" class="c2" />
      <use width="600" height="600" xlink:href="#w1" transform="rotate(136.8,300,300)" class="c3" />
      <use width="600" height="600" xlink:href="#w1" transform="rotate(140.4,300,300)" class="c4" />
      <use width="600" height="600" xlink:href="#w1" transform="rotate(144,300,300)" class="c5" />
      <use width="600" height="600" xlink:href="#w1" transform="rotate(147.6,300,300)" class="c6" />
      <use width="600" height="600" xlink:href="#w1" transform="rotate(151.2,300,300)" class="c0" />
      <use width="600" height="600" xlink:href="#w1" transform="rotate(154.8,300,300)" class="c1" />
      <use width="600" height="600" xlink:href="#w1" transform="rotate(158.4,300,300)" class="c2" />
      <use width="600" height="600" xlink:href="#w1" transform="rotate(162,300,300)" class="c3" />
      <use width="600" height="600" xlink:href="#w1" transform="rotate(165.6,300,300)" class="c4" />
      <use width="600" height="600" xlink:href="#w1" transform="rotate(169.2,300,300)" class="c5" />
      <use width="600" height="600" xlink:href="#w1" transform="rotate(172.8,300,300)" class="c6" />
      <use width="600" height="600" xlink:href="#w1" transform="rotate(176.4,300,300)" class="c0" />
      <use width="600" height="600" xlink:href="#w1" transform="rotate(1.8,300,300)" class="black" />
      <use width="600" height="600" xlink:href="#w1" transform="rotate(5.4,300,300)" class="black" />
      <use width="600" height="600" xlink:href="#w1" transform="rotate(9,300,300)" class="black" />
      <use width="600" height="600" xlink:href="#w1" transform="rotate(12.6,300,300)" class="black" />
      <use width="600" height="600" xlink:href="#w1" transform="rotate(16.2,300,300)" class="black" />
      <use width="600" height="600" xlink:href="#w1" transform="rotate(19.8,300,300)" class="black" />
      <use width="600" height="600" xlink:href="#w1" transform="rotate(23.4,300,300)" class="black" />
      <use width="600" height="600" xlink:href="#w1" transform="rotate(27,300,300)" class="black" />
      <use width="600" height="600" xlink:href="#w1" transform="rotate(30.6,300,300)" class="black" />
      <use width="600" height="600" xlink:href="#w1" transform="rotate(34.2,300,300)" class="black" />
      <use width="600" height="600" xlink:href="#w1" transform="rotate(37.8,300,300)" class="black" />
      <use width="600" height="600" xlink:href="#w1" transform="rotate(41.4,300,300)" class="black" />
      <use width="600" height="600" xlink:href="#w1" transform="rotate(45,300,300)" class="black" />
      <use width="600" height="600" xlink:href="#w1" transform="rotate(48.6,300,300)" class="black" />
      <use width="600" height="600" xlink:href="#w1" transform="rotate(52.2,300,300)" class="black" />
      <use width="600" height="600" xlink:href="#w1" transform="rotate(55.8,300,300)" class="black" />
      <use width="600" height="600" xlink:href="#w1" transform="rotate(59.4,300,300)" class="black" />
      <use width="600" height="600" xlink:href="#w1" transform="rotate(63,300,300)" class="black" />
      <use width="600" height="600" xlink:href="#w1" transform="rotate(66.6,300,300)" class="black" />
      <use width="600" height="600" xlink:href="#w1" transform="rotate(70.2,300,300)" class="black" />
      <use width="600" height="600" xlink:href="#w1" transform="rotate(73.8,300,300)" class="black" />
      <use width="600" height="600" xlink:href="#w1" transform="rotate(77.4,300,300)" class="black" />
      <use width="600" height="600" xlink:href="#w1" transform="rotate(81,300,300)" class="black" />
      <use width="600" height="600" xlink:href="#w1" transform="rotate(84.6,300,300)" class="black" />
      <use width="600" height="600" xlink:href="#w1" transform="rotate(88.2,300,300)" class="black" />
      <use width="600" height="600" xlink:href="#w1" transform="rotate(91.8,300,300)" class="black" />
      <use width="600" height="600" xlink:href="#w1" transform="rotate(95.4,300,300)" class="black" />
      <use width="600" height="600" xlink:href="#w1" transform="rotate(99,300,300)" class="black" />
      <use width="600" height="600" xlink:href="#w1" transform="rotate(102.6,300,300)" class="black" />
      <use width="600" height="600" xlink:href="#w1" transform="rotate(106.2,300,300)" class="black" />
      <use width="600" height="600" xlink:href="#w1" transform="rotate(109.8,300,300)" class="black" />
      <use width="600" height="600" xlink:href="#w1" transform="rotate(113.4,300,300)" class="black" />
      <use width="600" height="600" xlink:href="#w1" transform="rotate(117,300,300)" class="black" />
      <use width="600" height="600" xlink:href="#w1" transform="rotate(120.6,300,300)" class="black" />
      <use width="600" height="600" xlink:href="#w1" transform="rotate(124.2,300,300)" class="black" />
      <use width="600" height="600" xlink:href="#w1" transform="rotate(127.8,300,300)" class="black" />
      <use width="600" height="600" xlink:href="#w1" transform="rotate(131.4,300,300)" class="black" />
      <use width="600" height="600" xlink:href="#w1" transform="rotate(135,300,300)" class="black" />
      <use width="600" height="600" xlink:href="#w1" transform="rotate(138.6,300,300)" class="black" />
      <use width="600" height="600" xlink:href="#w1" transform="rotate(142.2,300,300)" class="black" />
      <use width="600" height="600" xlink:href="#w1" transform="rotate(145.8,300,300)" class="black" />
      <use width="600" height="600" xlink:href="#w1" transform="rotate(149.4,300,300)" class="black" />
      <use width="600" height="600" xlink:href="#w1" transform="rotate(153,300,300)" class="black" />
      <use width="600" height="600" xlink:href="#w1" transform="rotate(156.6,300,300)" class="black" />
      <use width="600" height="600" xlink:href="#w1" transform="rotate(160.2,300,300)" class="black" />
      <use width="600" height="600" xlink:href="#w1" transform="rotate(163.8,300,300)" class="black" />
      <use width="600" height="600" xlink:href="#w1" transform="rotate(167.4,300,300)" class="black" />
      <use width="600" height="600" xlink:href="#w1" transform="rotate(171,300,300)" class="black" />
      <use width="600" height="600" xlink:href="#w1" transform="rotate(174.6,300,300)" class="black" />
      <use width="600" height="600" xlink:href="#w1" transform="rotate(178.2,300,300)" class="black" />
      <use width="600" height="600" xlink:href="#w1" transform="rotate(181.8,300,300)" class="black" />
    </g>
    <animateTransform attributeName="transform" type="rotate" from="0,350,350" to="360,350,350" dur="20s" repeatCount="indefinite" />
  </g>

</svg>
