<?xml version="1.0" encoding="UTF-8" standalone="no"?>
<svg xmlns:svg="http://www.w3.org/2000/svg" xmlns="http://www.w3.org/2000/svg"
     version="1.0" width="100%" height="100%" viewBox="0 0 128 128"
     xml:space="preserve">
    <rect x="0" y="0" width="100%" height="100%" fill="#FFFFFF"/>
    <g>
        <svg:radialGradient id="gradient1">
            <stop offset="0%" stop-color="gold"/>
            <stop offset="25%" stop-color="orange"/>
            <stop offset="50%" stop-color="yellow"/>
            <stop offset="100%" stop-color="lightyellow"/>
        </svg:radialGradient>

        <svg:radialGradient id="gradient2">
            <stop offset="0%" stop-color="orange"/>
            <stop offset="25%" stop-color="gold"/>
            <stop offset="50%" stop-color="yellow"/>
            <stop offset="100%" stop-color="lightgoldenrodyellow"/>
        </svg:radialGradient>

        <path d="M63.88 0a8.02 8.02 0 1 1-8.02 8.02A8.02 8.02 0 0 1 63.88 0zm0 32.06a4 4 0 1 1-4 4 4 4 0 0 1 4-4zm0-14.02a6 6 0 1 1-6.02 6 6 6 0 0 1 6.02-6zm32-9.46a8.02 8.02 0 1 1-10.95 2.93 8.02 8.02 0 0 1 10.94-2.9zM79.84 36.34a4 4 0 1 1-5.47 1.47 4 4 0 0 1 5.47-1.43zm7.02-12.15a6 6 0 1 1-8.2 2.2 6 6 0 0 1 8.2-2.2zM119.3 32a8.02 8.02 0 1 1-10.95-2.93A8.02 8.02 0 0 1 119.3 32zM91.53 48.03a4 4 0 1 1-5.47-1.47 4 4 0 0 1 5.47 1.47zm12.15-7a6 6 0 1 1-8.2-2.2 6 6 0 0 1 8.2 2.2zM128 64.13a8.02 8.02 0 1 1-8.02-8.03 8.02 8.02 0 0 1 8.02 8.02zm-32.06 0a4 4 0 1 1-4-4 4 4 0 0 1 4 4zm14.03 0a6 6 0 1 1-6.02-6.03 6 6 0 0 1 6.02 6.02zM119.3 96a8.02 8.02 0 1 1-2.93-10.95A8.02 8.02 0 0 1 119.3 96zM91.53 79.97a4 4 0 1 1-1.46-5.48 4 4 0 0 1 1.46 5.44zm12.15 7a6 6 0 1 1-2.2-8.2 6 6 0 0 1 2.2 8.2zm-7.8 32.46a8.02 8.02 0 1 1 2.93-10.95 8.02 8.02 0 0 1-2.9 10.95zM79.84 91.66a4 4 0 1 1 1.47-5.48 4 4 0 0 1-1.43 5.48zm7.02 12.15a6 6 0 1 1 2.2-8.2 6 6 0 0 1-2.2 8.2zM63.88 128a8.02 8.02 0 1 1 8-8.02 8.02 8.02 0 0 1-8 8.02zm0-32.06a4 4 0 1 1 4-4 4 4 0 0 1-4 4zm0 14.03a6 6 0 1 1 6-6.02 6 6 0 0 1-6 6.02zm-32 9.46a8.02 8.02 0 1 1 10.95-2.94 8.02 8.02 0 0 1-10.95 2.9zM47.9 91.66a4 4 0 1 1 5.48-1.47 4 4 0 0 1-5.47 1.43zm-7 12.15a6 6 0 1 1 8.2-2.2 6 6 0 0 1-8.2 2.2zM8.44 96a8.02 8.02 0 1 1 10.95 2.93A8.02 8.02 0 0 1 8.42 96zM36.2 79.97a4 4 0 1 1 5.48 1.47 4 4 0 0 1-5.48-1.47zm-12.14 7a6 6 0 1 1 8.2 2.2 6 6 0 0 1-8.2-2.2zM0 64.14a8.02 8.02 0 1 1 8.02 8 8.02 8.02 0 0 1-8.02-8zm32.06 0a4 4 0 1 1 4 4 4 4 0 0 1-4-4zm-14.02 0a6 6 0 1 1 6 6 6 6 0 0 1-6-6zM8.44 32a8.02 8.02 0 1 1 2.94 10.95A8.02 8.02 0 0 1 8.45 32zm27.78 16.03a4 4 0 1 1 1.46 5.48 4 4 0 0 1-1.46-5.44zm-12.15-7a6 6 0 1 1 2.2 8.2 6 6 0 0 1-2.2-8.2zm7.8-32.46a8.02 8.02 0 1 1-2.93 10.95 8.02 8.02 0 0 1 2.93-10.95zM47.9 36.34a4 4 0 1 1-1.45 5.48 4 4 0 0 1 1.47-5.48zm-7-12.15a6 6 0 1 1-2.2 8.2 6 6 0 0 1 2.2-8.2z"
              fill="url(#gradient1)"/>
        <animateTransform attributeName="transform" type="rotate" from="0 64 64" to="30 64 64" dur="600ms"
                          repeatCount="indefinite">
        </animateTransform>
    </g>
    <g>
        <circle cx="0" cy="0" r="12.5" fill="url(#gradient2)" transform="translate(64 64)">
        <svg:animateTransform attributeName="transform" type="scale"
                              begin="0s"
                              from="0 0" to="1.8 1.8" dur="5s"
                              additive="sum"
                              repeatCount="indefinite">
        </svg:animateTransform>
        </circle>
        <circle cx="0" cy="0" r="12.5" fill="url(#gradient2)" transform="translate(64 64)">
            <svg:animateTransform attributeName="transform" type="scale"
                                  begin="5s"
                                  from="1.8 1.8" to="0 0" dur="5s"
                                  additive="sum"
                                  repeatCount="indefinite">
        </svg:animateTransform>
        </circle>
    </g>
</svg>