<?xml version="1.0" encoding="UTF-8" standalone="no"?>
<svg  xmlns="http://www.w3.org/2000/svg"
     version="1.0" width="100%" height="100%" viewBox="0 0 128 128"
     xml:space="preserve">
    <g>
        <radialGradient id="gradient1">
            <stop offset="0%" stop-color="DarkTurquoise"/>
            <stop offset="25%" stop-color="Turquoise"/>
            <stop offset="50%" stop-color="MediumTurquoise"/>
            <stop offset="75%" stop-color="blue"/>
            <stop offset="100%" stop-color="aqua"/>
        </radialGradient>
        <radialGradient id="gradient2">
            <stop offset="0%" stop-color="blue"/>
            <stop offset="15%" stop-color="lightblue"/>
            <stop offset="25%" stop-color="DodgerBlue"/>
            <stop offset="50%" stop-color="MediumTurquoise"/>
            <stop offset="75%" stop-color="SkyBlue"/>
            <stop offset="100%" stop-color="DarkTurquoise"/>
        </radialGradient>
        <path d="M76.34 52.05l-43.6-43.6a63.42 63.42 0 0 1 29.7-8.2zm4.2 7.7L64.64.2A63.32 63.32 0 0 1 94.44 8zm-.08 8.86l16-59.5a63.32 63.32 0 0 1 21.94 21.6zm-4.5 7.6l43.62-43.5a63.32 63.32 0 0 1 8.17 29.7zm-7.7 4.4l59.56-15.9a63.32 63.32 0 0 1-7.78 29.8zm-8.86-.1l59.56 16a63.32 63.32 0 0 1-21.66 22zM51.8 76l43.58 43.63a63.32 63.32 0 0 1-29.72 8.17zm-4.36-7.7l15.92 59.6a63.32 63.32 0 0 1-29.82-7.8zm.1-8.83l-16 59.55A63.3 63.3 0 0 1 9.6 97.3zm4.5-7.62L8.44 95.4a63.32 63.32 0 0 1-8.2-29.72zm7.7-4.33L.16 63.36a63.32 63.32 0 0 1 7.8-29.8zm8.85.1L9 31.56A63.32 63.32 0 0 1 30.68 9.6z"
              fill="url(#gradient1)"/>
        <circle cx="64.00" cy="64.00" r="12" fill="url(#gradient2)"/>
        <animateTransform attributeName="transform" type="rotate" to="0 64 64" from="30 64 64" dur="600ms"
                          repeatCount="indefinite">

        </animateTransform>
    </g>
</svg>